<svg xmlns="http://www.w3.org/2000/svg" width="1920" height="700"><path d="M884,485L764,490L884,592Z" fill="#62a3cf" stroke="#62a3cf" stroke-width="1.51"/><path d="M764,490L789,636L884,592Z" fill="#619ecd" stroke="#619ecd" stroke-width="1.51"/><path d="M789,636L914,729L884,592Z" fill="#5693c8" stroke="#5693c8" stroke-width="1.51"/><path d="M579,635L774,711L789,636Z" fill="#6499ca" stroke="#6499ca" stroke-width="1.51"/><path d="M884,485L715,380L764,490Z" fill="#6facd4" stroke="#6facd4" stroke-width="1.51"/><path d="M764,490L579,635L789,636Z" fill="#69a1ce" stroke="#69a1ce" stroke-width="1.51"/><path d="M774,711L914,729L789,636Z" fill="#5890c5" stroke="#5890c5" stroke-width="1.51"/><path d="M884,592L1050,502L884,485Z" fill="#589ecd" stroke="#589ecd" stroke-width="1.51"/><path d="M1040,646L1050,502L884,592Z" fill="#4f96c9" stroke="#4f96c9" stroke-width="1.51"/><path d="M884,485L919,287L715,380Z" fill="#72b0d6" stroke="#72b0d6" stroke-width="1.51"/><path d="M914,729L1040,646L884,592Z" fill="#4d8fc6" stroke="#4d8fc6" stroke-width="1.51"/><path d="M715,380L608,424L764,490Z" fill="#79b2d7" stroke="#79b2d7" stroke-width="1.51"/><path d="M608,424L579,635L764,490Z" fill="#74acd3" stroke="#74acd3" stroke-width="1.51"/><path d="M914,729L977,757L1040,646Z" fill="#4887c0" stroke="#4887c0" stroke-width="1.51"/><path d="M870,839L977,757L914,729Z" fill="#4a83bc" stroke="#4a83bc" stroke-width="1.51"/><path d="M1050,502L919,287L884,485Z" fill="#63a7d2" stroke="#63a7d2" stroke-width="1.51"/><path d="M715,380L646,320L608,424Z" fill="#83b9da" stroke="#83b9da" stroke-width="1.51"/><path d="M712,162L646,320L715,380Z" fill="#8dc0de" stroke="#8dc0de" stroke-width="1.51"/><path d="M774,711L870,839L914,729Z" fill="#5287be" stroke="#5287be" stroke-width="1.51"/><path d="M815,868L870,839L774,711Z" fill="#5383bb" stroke="#5383bb" stroke-width="1.51"/><path d="M635,877L815,868L774,711Z" fill="#5a85ba" stroke="#5a85ba" stroke-width="1.51"/><path d="M646,320L542,367L608,424Z" fill="#88bbdc" stroke="#88bbdc" stroke-width="1.51"/><path d="M608,424L446,475L579,635Z" fill="#7cafd6" stroke="#7cafd6" stroke-width="1.51"/><path d="M1050,502L1086,326L919,287Z" fill="#65a9d3" stroke="#65a9d3" stroke-width="1.51"/><path d="M1204,436L1086,326L1050,502Z" fill="#58a0ce" stroke="#58a0ce" stroke-width="1.51"/><path d="M579,635L592,793L774,711Z" fill="#6796c6" stroke="#6796c6" stroke-width="1.51"/><path d="M498,726L592,793L579,635Z" fill="#6e97c8" stroke="#6e97c8" stroke-width="1.51"/><path d="M1217,623L1204,436L1050,502Z" fill="#4995c8" stroke="#4995c8" stroke-width="1.51"/><path d="M977,757L1152,734L1040,646Z" fill="#4284be" stroke="#4284be" stroke-width="1.51"/><path d="M870,839L1068,822L977,757Z" fill="#447db8" stroke="#447db8" stroke-width="1.51"/><path d="M1043,1039L1068,822L870,839Z" fill="#3f71a7" stroke="#3f71a7" stroke-width="1.51"/><path d="M433,588L498,726L579,635Z" fill="#75a1cf" stroke="#75a1cf" stroke-width="1.51"/><path d="M1068,822L1152,734L977,757Z" fill="#3f7db8" stroke="#3f7db8" stroke-width="1.51"/><path d="M919,287L712,162L715,380Z" fill="#88bddc" stroke="#88bddc" stroke-width="1.51"/><path d="M646,320L561,147L542,367Z" fill="#96c4e0" stroke="#96c4e0" stroke-width="1.51"/><path d="M1049,205L953,176L919,287Z" fill="#80b9da" stroke="#80b9da" stroke-width="1.51"/><path d="M542,367L446,475L608,424Z" fill="#87b9db" stroke="#87b9db" stroke-width="1.51"/><path d="M487,874L635,877L592,793Z" fill="#6688b9" stroke="#6688b9" stroke-width="1.51"/><path d="M592,793L635,877L774,711Z" fill="#628bbf" stroke="#628bbf" stroke-width="1.51"/><path d="M1217,623L1050,502L1040,646Z" fill="#478fc5" stroke="#478fc5" stroke-width="1.51"/><path d="M1086,326L1049,205L919,287Z" fill="#76b2d8" stroke="#76b2d8" stroke-width="1.51"/><path d="M843,93L712,162L919,287Z" fill="#93c3df" stroke="#93c3df" stroke-width="1.51"/><path d="M542,367L375,423L446,475Z" fill="#8cbbdc" stroke="#8cbbdc" stroke-width="1.51"/><path d="M446,475L433,588L579,635Z" fill="#7dabd4" stroke="#7dabd4" stroke-width="1.51"/><path d="M1152,734L1217,623L1040,646Z" fill="#3d86bf" stroke="#3d86bf" stroke-width="1.51"/><path d="M1212,232L1049,205L1086,326Z" fill="#73afd6" stroke="#73afd6" stroke-width="1.51"/><path d="M712,162L678,149L646,320Z" fill="#9bc8e0" stroke="#9bc8e0" stroke-width="1.51"/><path d="M776,59L678,149L712,162Z" fill="#a3cbe3" stroke="#a3cbe3" stroke-width="1.51"/><path d="M1204,436L1224,340L1086,326Z" fill="#5ca2d0" stroke="#5ca2d0" stroke-width="1.51"/><path d="M1362,453L1224,340L1204,436Z" fill="#509acb" stroke="#509acb" stroke-width="1.51"/><path d="M953,176L843,93L919,287Z" fill="#8cbfdd" stroke="#8cbfdd" stroke-width="1.51"/><path d="M959,-24L843,93L953,176Z" fill="#9ac4e2" stroke="#9ac4e2" stroke-width="1.51"/><path d="M635,877L665,956L815,868Z" fill="#597dad" stroke="#597dad" stroke-width="1.51"/><path d="M815,868L828,1037L870,839Z" fill="#4d76a8" stroke="#4d76a8" stroke-width="1.51"/><path d="M497,964L665,956L635,877Z" fill="#5f7daa" stroke="#5f7daa" stroke-width="1.51"/><path d="M446,475L375,423L433,588Z" fill="#87b4da" stroke="#87b4da" stroke-width="1.51"/><path d="M371,356L375,423L542,367Z" fill="#92bfe0" stroke="#92bfe0" stroke-width="1.51"/><path d="M1217,623L1295,597L1204,436Z" fill="#3f8dc4" stroke="#3f8dc4" stroke-width="1.51"/><path d="M1263,742L1295,597L1217,623Z" fill="#3481be" stroke="#3481be" stroke-width="1.51"/><path d="M1263,742L1217,623L1152,734Z" fill="#367fbb" stroke="#367fbb" stroke-width="1.51"/><path d="M678,149L561,147L646,320Z" fill="#9fcae2" stroke="#9fcae2" stroke-width="1.51"/><path d="M611,-42L561,147L678,149Z" fill="#b0d1e7" stroke="#b0d1e7" stroke-width="1.51"/><path d="M1224,340L1235,295L1086,326Z" fill="#63a6d1" stroke="#63a6d1" stroke-width="1.51"/><path d="M1049,205L1082,86L953,176Z" fill="#88bbdc" stroke="#88bbdc" stroke-width="1.51"/><path d="M1372,292L1235,295L1224,340Z" fill="#60a3cf" stroke="#60a3cf" stroke-width="1.51"/><path d="M498,726L487,874L592,793Z" fill="#6c8fc2" stroke="#6c8fc2" stroke-width="1.51"/><path d="M333,751L487,874L498,726Z" fill="#7392c5" stroke="#7392c5" stroke-width="1.51"/><path d="M333,751L498,726L433,588Z" fill="#799ece" stroke="#799ece" stroke-width="1.51"/><path d="M665,956L693,998L815,868Z" fill="#5577a6" stroke="#5577a6" stroke-width="1.51"/><path d="M497,964L693,998L665,956Z" fill="#5d79a6" stroke="#5d79a6" stroke-width="1.51"/><path d="M1273,897L1263,742L1152,734Z" fill="#3074b3" stroke="#3074b3" stroke-width="1.51"/><path d="M1161,936L1152,734L1068,822Z" fill="#3773b0" stroke="#3773b0" stroke-width="1.51"/><path d="M843,93L776,59L712,162Z" fill="#a1cae3" stroke="#a1cae3" stroke-width="1.51"/><path d="M408,245L371,356L542,367Z" fill="#99c4e2" stroke="#99c4e2" stroke-width="1.51"/><path d="M1235,295L1212,232L1086,326Z" fill="#6aaad3" stroke="#6aaad3" stroke-width="1.51"/><path d="M843,93L959,-24L776,59Z" fill="#a3c9e5" stroke="#a3c9e5" stroke-width="1.51"/><path d="M693,998L828,1037L815,868Z" fill="#5073a3" stroke="#5073a3" stroke-width="1.51"/><path d="M440,201L408,245L542,367Z" fill="#a0c9e3" stroke="#a0c9e3" stroke-width="1.51"/><path d="M611,-42L528,132L561,147Z" fill="#b4d3e8" stroke="#b4d3e8" stroke-width="1.51"/><path d="M440,201L542,367L561,147Z" fill="#a1cae3" stroke="#a1cae3" stroke-width="1.51"/><path d="M528,132L440,201L561,147Z" fill="#add0e6" stroke="#add0e6" stroke-width="1.51"/><path d="M1043,1039L1161,936L1068,822Z" fill="#36699f" stroke="#36699f" stroke-width="1.51"/><path d="M1212,232L1082,86L1049,205Z" fill="#81b6d9" stroke="#81b6d9" stroke-width="1.51"/><path d="M295,650L433,588L375,423Z" fill="#85afd7" stroke="#85afd7" stroke-width="1.51"/><path d="M295,650L333,751L433,588Z" fill="#7fa3d1" stroke="#7fa3d1" stroke-width="1.51"/><path d="M340,878L497,964L487,874Z" fill="#6c84b2" stroke="#6c84b2" stroke-width="1.51"/><path d="M487,874L497,964L635,877Z" fill="#6582b0" stroke="#6582b0" stroke-width="1.51"/><path d="M693,998L354,1000L828,1037Z" fill="#5c79a6" stroke="#5c79a6" stroke-width="1.51"/><path d="M1295,597L1362,453L1204,436Z" fill="#4291c6" stroke="#4291c6" stroke-width="1.51"/><path d="M1235,295L1306,168L1212,232Z" fill="#70abd3" stroke="#70abd3" stroke-width="1.51"/><path d="M1391,535L1362,453L1295,597Z" fill="#3c8ac2" stroke="#3c8ac2" stroke-width="1.51"/><path d="M156,500L295,650L375,423Z" fill="#8cb5da" stroke="#8cb5da" stroke-width="1.51"/><path d="M828,1037L1043,1039L870,839Z" fill="#436ea0" stroke="#436ea0" stroke-width="1.51"/><path d="M1441,684L1295,597L1263,742Z" fill="#2f7bb9" stroke="#2f7bb9" stroke-width="1.51"/><path d="M1441,684L1391,535L1295,597Z" fill="#3280bd" stroke="#3280bd" stroke-width="1.51"/><path d="M1161,936L1273,897L1152,734Z" fill="#316daa" stroke="#316daa" stroke-width="1.51"/><path d="M1195,1022L1273,897L1161,936Z" fill="#2d6299" stroke="#2d6299" stroke-width="1.51"/><path d="M1082,86L959,-24L953,176Z" fill="#94c0e0" stroke="#94c0e0" stroke-width="1.51"/><path d="M776,59L611,-42L678,149Z" fill="#afd0e7" stroke="#afd0e7" stroke-width="1.51"/><path d="M333,751L340,878L487,874Z" fill="#748ec0" stroke="#748ec0" stroke-width="1.51"/><path d="M280,808L340,878L333,751Z" fill="#7992c4" stroke="#7992c4" stroke-width="1.51"/><path d="M1212,232L1283,101L1082,86Z" fill="#81b4d8" stroke="#81b4d8" stroke-width="1.51"/><path d="M1082,86L1088,-25L959,-24Z" fill="#9ac2e2" stroke="#9ac2e2" stroke-width="1.51"/><path d="M1362,453L1372,292L1224,340Z" fill="#549ccc" stroke="#549ccc" stroke-width="1.51"/><path d="M1511,428L1372,292L1362,453Z" fill="#4c93c7" stroke="#4c93c7" stroke-width="1.51"/><path d="M1372,292L1306,168L1235,295Z" fill="#69a6d1" stroke="#69a6d1" stroke-width="1.51"/><path d="M1043,1039L1195,1022L1161,936Z" fill="#33649b" stroke="#33649b" stroke-width="1.51"/><path d="M216,673L280,808L333,751Z" fill="#7e9bcb" stroke="#7e9bcb" stroke-width="1.51"/><path d="M1191,18L1102,-6L1082,86Z" fill="#93bedf" stroke="#93bedf" stroke-width="1.51"/><path d="M371,356L229,382L375,423Z" fill="#98c2e1" stroke="#98c2e1" stroke-width="1.51"/><path d="M295,650L216,673L333,751Z" fill="#81a2d0" stroke="#81a2d0" stroke-width="1.51"/><path d="M170,246L229,382L371,356Z" fill="#a3c9e5" stroke="#a3c9e5" stroke-width="1.51"/><path d="M170,246L371,356L408,245Z" fill="#a7cbe5" stroke="#a7cbe5" stroke-width="1.51"/><path d="M528,132L302,72L440,201Z" fill="#b6d4e9" stroke="#b6d4e9" stroke-width="1.51"/><path d="M440,201L302,72L408,245Z" fill="#b4d3e8" stroke="#b4d3e8" stroke-width="1.51"/><path d="M747,-90L611,-42L776,59Z" fill="#b4d4e9" stroke="#b4d4e9" stroke-width="1.51"/><path d="M959,-24L747,-90L776,59Z" fill="#abcee7" stroke="#abcee7" stroke-width="1.51"/><path d="M1102,-6L1088,-25L1082,86Z" fill="#96c0e0" stroke="#96c0e0" stroke-width="1.51"/><path d="M1191,18L1088,-25L1102,-6Z" fill="#96bee0" stroke="#96bee0" stroke-width="1.51"/><path d="M156,500L216,673L295,650Z" fill="#89add7" stroke="#89add7" stroke-width="1.51"/><path d="M1420,799L1263,742L1273,897Z" fill="#296dae" stroke="#296dae" stroke-width="1.51"/><path d="M1420,799L1441,684L1263,742Z" fill="#2972b3" stroke="#2972b3" stroke-width="1.51"/><path d="M1391,535L1511,428L1362,453Z" fill="#408bc3" stroke="#408bc3" stroke-width="1.51"/><path d="M1306,168L1283,101L1212,232Z" fill="#79afd5" stroke="#79afd5" stroke-width="1.51"/><path d="M1425,140L1283,101L1306,168Z" fill="#7badd5" stroke="#7badd5" stroke-width="1.51"/><path d="M743,-174L747,-90L897,-193Z" fill="#b8d6eb" stroke="#b8d6eb" stroke-width="1.51"/><path d="M1283,101L1191,18L1082,86Z" fill="#8cb8dc" stroke="#8cb8dc" stroke-width="1.51"/><path d="M1483,853L1420,799L1273,897Z" fill="#2465a6" stroke="#2465a6" stroke-width="1.51"/><path d="M277,1017L354,1000L340,878Z" fill="#7081ac" stroke="#7081ac" stroke-width="1.51"/><path d="M340,878L354,1000L497,964Z" fill="#6c80ab" stroke="#6c80ab" stroke-width="1.51"/><path d="M497,964L354,1000L693,998Z" fill="#647ca8" stroke="#647ca8" stroke-width="1.51"/><path d="M204,862L340,878L280,808Z" fill="#788fbe" stroke="#788fbe" stroke-width="1.51"/><path d="M229,382L156,500L375,423Z" fill="#96bee0" stroke="#96bee0" stroke-width="1.51"/><path d="M611,-42L539,-85L528,132Z" fill="#bcd8eb" stroke="#bcd8eb" stroke-width="1.51"/><path d="M585,-212L539,-85L611,-42Z" fill="#c5ddee" stroke="#c5ddee" stroke-width="1.51"/><path d="M1536,658L1511,428L1391,535Z" fill="#3481be" stroke="#3481be" stroke-width="1.51"/><path d="M1372,292L1425,140L1306,168Z" fill="#71a7d1" stroke="#71a7d1" stroke-width="1.51"/><path d="M1536,658L1391,535L1441,684Z" fill="#2c7aba" stroke="#2c7aba" stroke-width="1.51"/><path d="M40,753L204,862L216,673Z" fill="#829dcb" stroke="#829dcb" stroke-width="1.51"/><path d="M216,673L204,862L280,808Z" fill="#7e98c9" stroke="#7e98c9" stroke-width="1.51"/><path d="M539,-85L302,72L528,132Z" fill="#c0d8ec" stroke="#c0d8ec" stroke-width="1.51"/><path d="M229,382L44,298L156,500Z" fill="#9fc6e3" stroke="#9fc6e3" stroke-width="1.51"/><path d="M1202,-159L1051,-131L1088,-25Z" fill="#9fc5e3" stroke="#9fc5e3" stroke-width="1.51"/><path d="M1088,-25L1051,-131L959,-24Z" fill="#a0c6e4" stroke="#a0c6e4" stroke-width="1.51"/><path d="M747,-90L743,-174L611,-42Z" fill="#bbd8eb" stroke="#bbd8eb" stroke-width="1.51"/><path d="M1202,-159L1088,-25L1191,18Z" fill="#98c0e0" stroke="#98c0e0" stroke-width="1.51"/><path d="M897,-193L747,-90L959,-24Z" fill="#afd0e8" stroke="#afd0e8" stroke-width="1.51"/><path d="M302,72L170,246L408,245Z" fill="#b6d4e9" stroke="#b6d4e9" stroke-width="1.51"/><path d="M1353,-66L1202,-159L1191,18Z" fill="#95bcde" stroke="#95bcde" stroke-width="1.51"/><path d="M1464,183L1425,140L1372,292Z" fill="#6ea4cf" stroke="#6ea4cf" stroke-width="1.51"/><path d="M1043,1039L1353,1029L1195,1022Z" fill="#2e6299" stroke="#2e6299" stroke-width="1.51"/><path d="M1195,1022L1353,1029L1273,897Z" fill="#285e97" stroke="#285e97" stroke-width="1.51"/><path d="M1549,756L1441,684L1420,799Z" fill="#226caf" stroke="#226caf" stroke-width="1.51"/><path d="M1549,756L1536,658L1441,684Z" fill="#226fb2" stroke="#226fb2" stroke-width="1.51"/><path d="M156,500L108,598L216,673Z" fill="#8db0d8" stroke="#8db0d8" stroke-width="1.51"/><path d="M61,539L108,598L156,500Z" fill="#92b7dc" stroke="#92b7dc" stroke-width="1.51"/><path d="M1353,1029L1483,853L1273,897Z" fill="#235d99" stroke="#235d99" stroke-width="1.51"/><path d="M204,862L277,1017L340,878Z" fill="#7486b2" stroke="#7486b2" stroke-width="1.51"/><path d="M354,1000L277,1017L828,1037Z" fill="#667da8" stroke="#667da8" stroke-width="1.51"/><path d="M1560,325L1464,183L1372,292Z" fill="#619ccc" stroke="#619ccc" stroke-width="1.51"/><path d="M1051,-131L897,-193L959,-24Z" fill="#a8cce7" stroke="#a8cce7" stroke-width="1.51"/><path d="M1651,282L1560,325L1727,353Z" fill="#508cc3" stroke="#508cc3" stroke-width="1.51"/><path d="M1483,853L1549,756L1420,799Z" fill="#1e65ab" stroke="#1e65ab" stroke-width="1.51"/><path d="M1511,428L1560,325L1372,292Z" fill="#5094c8" stroke="#5094c8" stroke-width="1.51"/><path d="M1560,325L1511,428L1727,353Z" fill="#488bc3" stroke="#488bc3" stroke-width="1.51"/><path d="M44,298L61,539L156,500Z" fill="#9cc2e1" stroke="#9cc2e1" stroke-width="1.51"/><path d="M302,72L185,122L170,246Z" fill="#bfd9ec" stroke="#bfd9ec" stroke-width="1.51"/><path d="M220,-7L185,122L302,72Z" fill="#c9ddf0" stroke="#c9ddf0" stroke-width="1.51"/><path d="M108,598L40,753L216,673Z" fill="#88a7d3" stroke="#88a7d3" stroke-width="1.51"/><path d="M44,298L229,382L170,246Z" fill="#aacee7" stroke="#aacee7" stroke-width="1.51"/><path d="M539,-85L349,-118L302,72Z" fill="#cbdff0" stroke="#cbdff0" stroke-width="1.51"/><path d="M743,-174L585,-212L611,-42Z" fill="#c3dded" stroke="#c3dded" stroke-width="1.51"/><path d="M897,-193L585,-212L743,-174Z" fill="#c0dbed" stroke="#c0dbed" stroke-width="1.51"/><path d="M1051,-131L1272,-231L897,-193Z" fill="#a8cbe6" stroke="#a8cbe6" stroke-width="1.51"/><path d="M1353,-66L1191,18L1283,101Z" fill="#8db7db" stroke="#8db7db" stroke-width="1.51"/><path d="M1353,-66L1283,101L1425,140Z" fill="#86b0d8" stroke="#86b0d8" stroke-width="1.51"/><path d="M1483,853L1560,910L1549,756Z" fill="#1a5fa3" stroke="#1a5fa3" stroke-width="1.51"/><path d="M1353,1029L1471,1011L1483,853Z" fill="#1f5693" stroke="#1f5693" stroke-width="1.51"/><path d="M1446,-69L1353,-66L1425,140Z" fill="#89b0d8" stroke="#89b0d8" stroke-width="1.51"/><path d="M1630,122L1425,140L1464,183Z" fill="#73a2cf" stroke="#73a2cf" stroke-width="1.51"/><path d="M585,-212L451,-176L539,-85Z" fill="#cce1f0" stroke="#cce1f0" stroke-width="1.51"/><path d="M451,-176L349,-118L539,-85Z" fill="#cee1f1" stroke="#cee1f1" stroke-width="1.51"/><path d="M-6,698L40,753L108,598Z" fill="#8ba8d4" stroke="#8ba8d4" stroke-width="1.51"/><path d="M204,862L79,1060L277,1017Z" fill="#7584ad" stroke="#7584ad" stroke-width="1.51"/><path d="M48,244L44,298L170,246Z" fill="#b3d3e9" stroke="#b3d3e9" stroke-width="1.51"/><path d="M349,-118L220,-7L302,72Z" fill="#cee0f2" stroke="#cee0f2" stroke-width="1.51"/><path d="M48,244L170,246L121,89Z" fill="#bdd9eb" stroke="#bdd9eb" stroke-width="1.51"/><path d="M61,539L-6,698L108,598Z" fill="#8fb1d9" stroke="#8fb1d9" stroke-width="1.51"/><path d="M1471,1011L1560,910L1483,853Z" fill="#1a5695" stroke="#1a5695" stroke-width="1.51"/><path d="M1651,282L1579,195L1560,325Z" fill="#5c94c7" stroke="#5c94c7" stroke-width="1.51"/><path d="M1511,428L1536,658L1737,499Z" fill="#307dbb" stroke="#307dbb" stroke-width="1.51"/><path d="M1560,325L1579,195L1464,183Z" fill="#649acb" stroke="#649acb" stroke-width="1.51"/><path d="M121,89L170,246L185,122Z" fill="#c1daec" stroke="#c1daec" stroke-width="1.51"/><path d="M220,-7L121,89L185,122Z" fill="#cbdef0" stroke="#cbdef0" stroke-width="1.51"/><path d="M-82,630L61,539L-99,514Z" fill="#97b9dc" stroke="#97b9dc" stroke-width="1.51"/><path d="M-82,630L-6,698L61,539Z" fill="#91b0d9" stroke="#91b0d9" stroke-width="1.51"/><path d="M1471,1011L1551,988L1560,910Z" fill="#195190" stroke="#195190" stroke-width="1.51"/><path d="M1680,761L1549,756L1682,822Z" fill="#165fa7" stroke="#165fa7" stroke-width="1.51"/><path d="M1680,761L1536,658L1549,756Z" fill="#1c67ae" stroke="#1c67ae" stroke-width="1.51"/><path d="M1630,122L1446,-69L1425,140Z" fill="#80a7d3" stroke="#80a7d3" stroke-width="1.51"/><path d="M1353,-66L1272,-231L1202,-159Z" fill="#9bbfe0" stroke="#9bbfe0" stroke-width="1.51"/><path d="M1630,122L1464,183L1579,195Z" fill="#6f9fcd" stroke="#6f9fcd" stroke-width="1.51"/><path d="M-51,844L33,900L40,753Z" fill="#8597c5" stroke="#8597c5" stroke-width="1.51"/><path d="M40,753L33,900L204,862Z" fill="#8194c3" stroke="#8194c3" stroke-width="1.51"/><path d="M1682,822L1549,756L1560,910Z" fill="#155ca2" stroke="#155ca2" stroke-width="1.51"/><path d="M-96,137L19,179L121,89Z" fill="#c8dfef" stroke="#c8dfef" stroke-width="1.51"/><path d="M121,89L19,179L48,244Z" fill="#c2dbed" stroke="#c2dbed" stroke-width="1.51"/><path d="M48,244L-113,358L44,298Z" fill="#b2d2ea" stroke="#b2d2ea" stroke-width="1.51"/><path d="M1202,-159L1272,-231L1051,-131Z" fill="#a2c5e3" stroke="#a2c5e3" stroke-width="1.51"/><path d="M897,-193L1272,-231L585,-212Z" fill="#b4d4eb" stroke="#b4d4eb" stroke-width="1.51"/><path d="M1417,-239L1272,-231L1353,-66Z" fill="#9bbcde" stroke="#9bbcde" stroke-width="1.51"/><path d="M1802,962L1682,822L1560,910Z" fill="#125094" stroke="#125094" stroke-width="1.51"/><path d="M1651,282L1630,122L1579,195Z" fill="#6899c9" stroke="#6899c9" stroke-width="1.51"/><path d="M33,900L79,1060L204,862Z" fill="#7987b1" stroke="#7987b1" stroke-width="1.51"/><path d="M277,1017L79,1060L828,1037Z" fill="#6c7faa" stroke="#6c7faa" stroke-width="1.51"/><path d="M828,1037L79,1060L1043,1039Z" fill="#5b78a5" stroke="#5b78a5" stroke-width="1.51"/><path d="M1651,282L1727,117L1630,122Z" fill="#6b98c8" stroke="#6b98c8" stroke-width="1.51"/><path d="M1742,576L1737,499L1536,658Z" fill="#2873b4" stroke="#2873b4" stroke-width="1.51"/><path d="M1742,576L1536,658L1680,761Z" fill="#1d6bb0" stroke="#1d6bb0" stroke-width="1.51"/><path d="M-6,698L-51,844L40,753Z" fill="#89a0cd" stroke="#89a0cd" stroke-width="1.51"/><path d="M33,900L16,992L79,1060Z" fill="#7b87af" stroke="#7b87af" stroke-width="1.51"/><path d="M-99,514L61,539L-113,358Z" fill="#9fc3e2" stroke="#9fc3e2" stroke-width="1.51"/><path d="M331,-253L349,-118L451,-176Z" fill="#d7e6f5" stroke="#d7e6f5" stroke-width="1.51"/><path d="M331,-253L250,-173L349,-118Z" fill="#dbe8f6" stroke="#dbe8f6" stroke-width="1.51"/><path d="M349,-118L250,-173L220,-7Z" fill="#d5e5f4" stroke="#d5e5f4" stroke-width="1.51"/><path d="M220,-7L102,-108L121,89Z" fill="#d3e3f3" stroke="#d3e3f3" stroke-width="1.51"/><path d="M1809,653L1742,576L1680,761Z" fill="#1b66ac" stroke="#1b66ac" stroke-width="1.51"/><path d="M1737,499L1727,353L1511,428Z" fill="#3e83bd" stroke="#3e83bd" stroke-width="1.51"/><path d="M-125,517L-99,514L-113,358Z" fill="#a3c5e3" stroke="#a3c5e3" stroke-width="1.51"/><path d="M-51,844L16,992L33,900Z" fill="#808eb7" stroke="#808eb7" stroke-width="1.51"/><path d="M-141,700L-51,844L-6,698Z" fill="#8da3cf" stroke="#8da3cf" stroke-width="1.51"/><path d="M-141,700L-6,698L-82,630Z" fill="#91acd6" stroke="#91acd6" stroke-width="1.51"/><path d="M585,-212L331,-253L451,-176Z" fill="#d5e6f3" stroke="#d5e6f3" stroke-width="1.51"/><path d="M1272,-231L331,-253L585,-212Z" fill="#c4deee" stroke="#c4deee" stroke-width="1.51"/><path d="M-99,514L-125,517L-82,630Z" fill="#9abbde" stroke="#9abbde" stroke-width="1.51"/><path d="M-113,358L61,539L44,298Z" fill="#a5c9e5" stroke="#a5c9e5" stroke-width="1.51"/><path d="M-160,355L-113,358L-155,204Z" fill="#b7d5eb" stroke="#b7d5eb" stroke-width="1.51"/><path d="M-155,204L-113,358L48,244Z" fill="#b9d7eb" stroke="#b9d7eb" stroke-width="1.51"/><path d="M1630,122L1536,-116L1446,-69Z" fill="#86a9d5" stroke="#86a9d5" stroke-width="1.51"/><path d="M1446,-69L1417,-239L1353,-66Z" fill="#94b6db" stroke="#94b6db" stroke-width="1.51"/><path d="M1657,-138L1536,-116L1630,122Z" fill="#86a6d3" stroke="#86a6d3" stroke-width="1.51"/><path d="M250,-173L102,-108L220,-7Z" fill="#d8e7f5" stroke="#d8e7f5" stroke-width="1.51"/><path d="M25,-237L102,-108L250,-173Z" fill="#e1ecf8" stroke="#e1ecf8" stroke-width="1.51"/><path d="M1853,271L1727,117L1651,282Z" fill="#6190c3" stroke="#6190c3" stroke-width="1.51"/><path d="M1737,499L1781,362L1727,353Z" fill="#3f80bb" stroke="#3f80bb" stroke-width="1.51"/><path d="M1884,473L1781,362L1737,499Z" fill="#3879b6" stroke="#3879b6" stroke-width="1.51"/><path d="M1536,-116L1417,-239L1446,-69Z" fill="#93b4da" stroke="#93b4da" stroke-width="1.51"/><path d="M1272,-231L1417,-239L331,-253Z" fill="#b1d1e9" stroke="#b1d1e9" stroke-width="1.51"/><path d="M-51,844L-175,853L16,992Z" fill="#8491bb" stroke="#8491bb" stroke-width="1.51"/><path d="M-193,615L-141,700L-82,630Z" fill="#95b1d9" stroke="#95b1d9" stroke-width="1.51"/><path d="M-193,615L-82,630L-125,517Z" fill="#99b8dc" stroke="#99b8dc" stroke-width="1.51"/><path d="M1742,576L1884,473L1737,499Z" fill="#2c73b3" stroke="#2c73b3" stroke-width="1.51"/><path d="M1785,787L1809,653L1680,761Z" fill="#155ea6" stroke="#155ea6" stroke-width="1.51"/><path d="M1682,822L1785,787L1680,761Z" fill="#125aa3" stroke="#125aa3" stroke-width="1.51"/><path d="M1802,962L1785,787L1682,822Z" fill="#0f5197" stroke="#0f5197" stroke-width="1.51"/><path d="M1853,271L1651,282L1727,353Z" fill="#5289c0" stroke="#5289c0" stroke-width="1.51"/><path d="M-113,358L-160,355L-125,517Z" fill="#a9cbe6" stroke="#a9cbe6" stroke-width="1.51"/><path d="M-155,204L48,244L19,179Z" fill="#c1dbec" stroke="#c1dbec" stroke-width="1.51"/><path d="M-127,28L-96,137L-112,-7Z" fill="#d9e7f5" stroke="#d9e7f5" stroke-width="1.51"/><path d="M-141,700L-175,853L-51,844Z" fill="#8d9fcc" stroke="#8d9fcc" stroke-width="1.51"/><path d="M-160,355L-193,615L-125,517Z" fill="#a2c3e2" stroke="#a2c3e2" stroke-width="1.51"/><path d="M1657,-138L1573,-163L1536,-116Z" fill="#8facd6" stroke="#8facd6" stroke-width="1.51"/><path d="M1536,-116L1573,-163L1417,-239Z" fill="#94b2da" stroke="#94b2da" stroke-width="1.51"/><path d="M-160,355L-189,-2L-193,615Z" fill="#b6d5eb" stroke="#b6d5eb" stroke-width="1.51"/><path d="M-96,137L-155,204L19,179Z" fill="#c7dfee" stroke="#c7dfee" stroke-width="1.51"/><path d="M-127,28L-155,204L-96,137Z" fill="#d0e3f2" stroke="#d0e3f2" stroke-width="1.51"/><path d="M-193,615L-175,853L-141,700Z" fill="#92a9d3" stroke="#92a9d3" stroke-width="1.51"/><path d="M16,992L-229,1062L79,1060Z" fill="#7e89b1" stroke="#7e89b1" stroke-width="1.51"/><path d="M1781,362L1853,271L1727,353Z" fill="#4b84bd" stroke="#4b84bd" stroke-width="1.51"/><path d="M1809,653L1884,473L1742,576Z" fill="#256db0" stroke="#256db0" stroke-width="1.51"/><path d="M1935,619L1884,473L1809,653Z" fill="#2268ac" stroke="#2268ac" stroke-width="1.51"/><path d="M1884,473L1853,271L1781,362Z" fill="#427eb9" stroke="#427eb9" stroke-width="1.51"/><path d="M1727,117L1657,-138L1630,122Z" fill="#7e9fce" stroke="#7e9fce" stroke-width="1.51"/><path d="M1760,1050L1802,962L1560,910Z" fill="#114889" stroke="#114889" stroke-width="1.51"/><path d="M2015,726L1935,619L1809,653Z" fill="#155ca3" stroke="#155ca3" stroke-width="1.51"/><path d="M1760,1050L1560,910L1551,988Z" fill="#144d8d" stroke="#144d8d" stroke-width="1.51"/><path d="M1760,1050L1551,988L1471,1011Z" fill="#154e8e" stroke="#154e8e" stroke-width="1.51"/><path d="M1353,1029L1760,1050L1471,1011Z" fill="#195190" stroke="#195190" stroke-width="1.51"/><path d="M1043,1039L1760,1050L1353,1029Z" fill="#225894" stroke="#225894" stroke-width="1.51"/><path d="M2022,1063L1760,1050L1043,1039Z" fill="#144d8d" stroke="#144d8d" stroke-width="1.51"/><path d="M1764,-103L1657,-138L1727,117Z" fill="#83a0ce" stroke="#83a0ce" stroke-width="1.51"/><path d="M1573,-163L1845,-201L1417,-239Z" fill="#94aed7" stroke="#94aed7" stroke-width="1.51"/><path d="M-112,-7L-96,137L121,89Z" fill="#d2e3f3" stroke="#d2e3f3" stroke-width="1.51"/><path d="M-112,-7L121,89L102,-108Z" fill="#d7e6f5" stroke="#d7e6f5" stroke-width="1.51"/><path d="M-101,-122L-112,-7L102,-108Z" fill="#e0ecf8" stroke="#e0ecf8" stroke-width="1.51"/><path d="M1908,188L1815,51L1727,117Z" fill="#6f92c4" stroke="#6f92c4" stroke-width="1.51"/><path d="M2015,726L1809,653L1785,787Z" fill="#1159a2" stroke="#1159a2" stroke-width="1.51"/><path d="M1990,335L1908,188L1853,271Z" fill="#5582b8" stroke="#5582b8" stroke-width="1.51"/><path d="M1853,271L1908,188L1727,117Z" fill="#648dc0" stroke="#648dc0" stroke-width="1.51"/><path d="M331,-253L25,-237L250,-173Z" fill="#e2edf8" stroke="#e2edf8" stroke-width="1.51"/><path d="M2022,1063L1883,900L1802,962Z" fill="#093e80" stroke="#093e80" stroke-width="1.51"/><path d="M1802,962L1883,900L1785,787Z" fill="#0b4a91" stroke="#0b4a91" stroke-width="1.51"/><path d="M1815,51L1764,-103L1727,117Z" fill="#7d99ca" stroke="#7d99ca" stroke-width="1.51"/><path d="M1657,-138L1845,-201L1573,-163Z" fill="#8fa7d2" stroke="#8fa7d2" stroke-width="1.51"/><path d="M1990,335L1853,271L1884,473Z" fill="#437ab5" stroke="#437ab5" stroke-width="1.51"/><path d="M1815,51L1841,-25L1764,-103Z" fill="#809aca" stroke="#809aca" stroke-width="1.51"/><path d="M25,-237L-101,-122L102,-108Z" fill="#e5eef9" stroke="#e5eef9" stroke-width="1.51"/><path d="M-112,-7L-189,-2L-127,28Z" fill="#deeaf7" stroke="#deeaf7" stroke-width="1.51"/><path d="M-101,-122L-189,-2L-112,-7Z" fill="#e1edf8" stroke="#e1edf8" stroke-width="1.51"/><path d="M-127,28L-189,-2L-155,204Z" fill="#d7e7f4" stroke="#d7e7f4" stroke-width="1.51"/><path d="M-155,204L-189,-2L-160,355Z" fill="#cae1ef" stroke="#cae1ef" stroke-width="1.51"/><path d="M1972,34L1841,-25L1815,51Z" fill="#7a93c5" stroke="#7a93c5" stroke-width="1.51"/><path d="M79,1060L2022,1063L1043,1039Z" fill="#39689d" stroke="#39689d" stroke-width="1.51"/><path d="M-175,853L-229,1062L16,992Z" fill="#828bb2" stroke="#828bb2" stroke-width="1.51"/><path d="M-193,615L-229,1062L-175,853Z" fill="#8d9bc6" stroke="#8d9bc6" stroke-width="1.51"/><path d="M-189,-2L-229,1062L-193,615Z" fill="#9ebddf" stroke="#9ebddf" stroke-width="1.51"/><path d="M1908,188L1972,34L1815,51Z" fill="#718ec1" stroke="#718ec1" stroke-width="1.51"/><path d="M2029,542L1990,335L1884,473Z" fill="#346fab" stroke="#346fab" stroke-width="1.51"/><path d="M2029,542L1884,473L1935,619Z" fill="#2667a7" stroke="#2667a7" stroke-width="1.51"/><path d="M2056,602L2029,542L1935,619Z" fill="#205fa0" stroke="#205fa0" stroke-width="1.51"/><path d="M1883,900L2015,726L1785,787Z" fill="#084f99" stroke="#084f99" stroke-width="1.51"/><path d="M25,-237L-177,-174L-101,-122Z" fill="#eaf2fb" stroke="#eaf2fb" stroke-width="1.51"/><path d="M-101,-122L-177,-174L-189,-2Z" fill="#e6f0fa" stroke="#e6f0fa" stroke-width="1.51"/><path d="M2015,726L2056,602L1935,619Z" fill="#175a9d" stroke="#175a9d" stroke-width="1.51"/><path d="M2097,452L2072,332L1990,335Z" fill="#3e71a8" stroke="#3e71a8" stroke-width="1.51"/><path d="M2015,726L2124,728L2056,602Z" fill="#145296" stroke="#145296" stroke-width="1.51"/><path d="M1883,900L2017,883L2015,726Z" fill="#09478e" stroke="#09478e" stroke-width="1.51"/><path d="M2022,1063L2017,883L1883,900Z" fill="#093b7b" stroke="#093b7b" stroke-width="1.51"/><path d="M1841,-25L1845,-201L1764,-103Z" fill="#869dcb" stroke="#869dcb" stroke-width="1.51"/><path d="M2124,199L1972,34L1908,188Z" fill="#6786b5" stroke="#6786b5" stroke-width="1.51"/><path d="M2124,199L1908,188L1990,335Z" fill="#587eb1" stroke="#587eb1" stroke-width="1.51"/><path d="M1940,-157L1845,-201L1841,-25Z" fill="#869bc9" stroke="#869bc9" stroke-width="1.51"/><path d="M1764,-103L1845,-201L1657,-138Z" fill="#8ba3cf" stroke="#8ba3cf" stroke-width="1.51"/><path d="M2097,452L1990,335L2029,542Z" fill="#346ca5" stroke="#346ca5" stroke-width="1.51"/><path d="M2124,728L2097,452L2056,602Z" fill="#1f5a99" stroke="#1f5a99" stroke-width="1.51"/><path d="M2056,602L2097,452L2029,542Z" fill="#26629f" stroke="#26629f" stroke-width="1.51"/><path d="M1760,1050L2022,1063L1802,962Z" fill="#094183" stroke="#094183" stroke-width="1.51"/><path d="M2099,861L2124,728L2015,726Z" fill="#0c498d" stroke="#0c498d" stroke-width="1.51"/><path d="M2097,1065L2022,1063L79,1060Z" fill="#215894" stroke="#215894" stroke-width="1.51"/><path d="M2099,861L2015,726L2017,883Z" fill="#09458a" stroke="#09458a" stroke-width="1.51"/><path d="M2097,1065L2099,861L2017,883Z" fill="#083776" stroke="#083776" stroke-width="1.51"/><path d="M1972,34L1940,-157L1841,-25Z" fill="#7e94c4" stroke="#7e94c4" stroke-width="1.51"/><path d="M2022,-120L1940,-157L1972,34Z" fill="#7f92bf" stroke="#7f92bf" stroke-width="1.51"/><path d="M2072,332L2124,199L1990,335Z" fill="#4d77aa" stroke="#4d77aa" stroke-width="1.51"/><path d="M2097,452L2124,199L2072,332Z" fill="#4572a6" stroke="#4572a6" stroke-width="1.51"/><path d="M2159,114L2124,199L2097,452Z" fill="#5276a6" stroke="#5276a6" stroke-width="1.51"/><path d="M1940,-157L2042,-183L1845,-201Z" fill="#8999c5" stroke="#8999c5" stroke-width="1.51"/><path d="M2112,-106L2022,-120L1972,34Z" fill="#7c8dba" stroke="#7c8dba" stroke-width="1.51"/><path d="M2022,1063L2097,1065L2017,883Z" fill="#093675" stroke="#093675" stroke-width="1.51"/><path d="M2099,861L2097,1065L2124,728Z" fill="#093b7b" stroke="#093b7b" stroke-width="1.51"/><path d="M-229,1062L2097,1065L79,1060Z" fill="#5b78a5" stroke="#5b78a5" stroke-width="1.51"/><path d="M2124,199L2159,114L1972,34Z" fill="#6881af" stroke="#6881af" stroke-width="1.51"/><path d="M2124,728L2159,114L2097,452Z" fill="#34689f" stroke="#34689f" stroke-width="1.51"/><path d="M2022,-120L2042,-183L1940,-157Z" fill="#8494bf" stroke="#8494bf" stroke-width="1.51"/><path d="M2112,-106L2042,-183L2022,-120Z" fill="#818fba" stroke="#818fba" stroke-width="1.51"/><path d="M2159,114L2112,-106L1972,34Z" fill="#7487b4" stroke="#7487b4" stroke-width="1.51"/></svg>